<?xml version="1.0" encoding="utf-8"?>
<!-- Generator: Adobe Illustrator 25.3.1, SVG Export Plug-In . SVG Version: 6.00 Build 0)  -->
<svg version="1.1" id="Layer_1" xmlns="http://www.w3.org/2000/svg" xmlns:xlink="http://www.w3.org/1999/xlink" x="0px" y="0px"
	 viewBox="0 0 4000 4000" style="enable-background:new 0 0 4000 4000;" xml:space="preserve">
<style type="text/css">
	.st0{fill:#29ABE2;}
	.st1{fill:#333333;}
</style>
<rect class="st0" width="4000" height="4000"/>
<g>
	<polygon class="st1" points="2279.18,2338.19 2164.65,2403.64 2165.23,2271.73 	"/>
	
		<rect x="2050.44" y="1805.37" transform="matrix(0.5038 -0.8638 0.8638 0.5038 -414.7571 3066.3943)" class="st1" width="822.64" height="177.71"/>
	<path class="st1" d="M2803.62,1484.44l-26.36,45.2l-76.75-44.76l-76.75-44.77l26.36-45.2c5.72-9.8,14.91-16.79,25.89-19.68
		c10.97-2.89,22.42-1.33,32.22,4.39l80.11,46.72c9.8,5.72,16.79,14.91,19.68,25.89C2810.89,1463.2,2809.34,1474.64,2803.62,1484.44z
		"/>
	<path class="st1" d="M2107.56,2201.07c0.15-0.27,0.26-0.54,0.42-0.81l347.65-596.08v-276.28c0-57.59-46.85-104.44-104.44-104.44
		H1295.02c-57.59,0-104.44,46.85-104.44,104.44v1344.19c0,57.59,46.85,104.44,104.44,104.44h1056.18
		c57.59,0,104.44-46.85,104.44-104.44v-466.82l-86.06,147.56c-0.15,0.26-0.34,0.5-0.5,0.76c-2.73,4.93-6.75,9.13-11.81,12.03
		l-208.61,119.22c-4.81,2.75-10.17,4.12-15.52,4.12c-5.45,0-10.89-1.42-15.76-4.26c-9.65-5.63-15.57-15.98-15.52-27.16l1.06-240.27
		C2102.93,2211.45,2104.61,2205.87,2107.56,2201.07z M1418.24,1511.04h809.72c17.28,0,31.28,14.01,31.28,31.28
		c0,17.28-14,31.28-31.28,31.28h-809.72c-17.28,0-31.28-14-31.28-31.28C1386.96,1525.04,1400.97,1511.04,1418.24,1511.04z
		 M2012.8,2457.68c0,17.28-14.01,31.28-31.28,31.28h-563.28c-17.28,0-31.28-14-31.28-31.28v0c0-17.28,14.01-31.28,31.28-31.28
		h563.28C1998.8,2426.4,2012.8,2440.41,2012.8,2457.68L2012.8,2457.68z M1981.52,2183.85h-563.28c-17.28,0-31.28-14-31.28-31.28
		s14-31.28,31.28-31.28h563.28c17.28,0,31.28,14.01,31.28,31.28S1998.8,2183.85,1981.52,2183.85z M1418.24,1878.72
		c-17.28,0-31.28-14-31.28-31.28c0-17.28,14.01-31.28,31.28-31.28h692.37c17.28,0,31.28,14.01,31.28,31.28
		c0,17.28-14,31.28-31.28,31.28H1418.24z"/>
</g>
</svg>
