<?xml version="1.0" encoding="utf-8"?>
<!-- Generator: Adobe Illustrator 25.3.1, SVG Export Plug-In . SVG Version: 6.00 Build 0)  -->
<svg version="1.1" id="Capa_1" xmlns="http://www.w3.org/2000/svg" xmlns:xlink="http://www.w3.org/1999/xlink" x="0px" y="0px"
	 viewBox="0 0 425.2 425.2" style="enable-background:new 0 0 425.2 425.2;" xml:space="preserve">
<style type="text/css">
	.st0{fill:#EC008C;}
	.st1{stroke:#FFFFFF;stroke-width:2;stroke-linecap:round;stroke-linejoin:round;stroke-miterlimit:10;}
</style>
<rect x="0" y="0" class="st0" width="425.2" height="425.2"/>
<g>
	<path class="st1" d="M288.47,167.15c1.66-2.36,3.17-4.9,4.43-7.62c9.49-20.29,4.25-43.69-11.35-58.14l4.72-10.09
		c1.23-2.62,0.1-5.74-2.53-6.97c-2.62-1.23-5.75-0.1-6.96,2.52L272.96,95c-1.37-0.81-2.79-1.57-4.27-2.26
		c-1.47-0.69-2.96-1.29-4.45-1.83l3.82-8.14c1.22-2.62,0.09-5.74-2.54-6.97c-2.62-1.23-5.74-0.1-6.97,2.53l-4.72,10.09
		c-21.09-2.72-42.41,8.24-51.91,28.53c-1.27,2.71-2.26,5.49-3.02,8.28l32.34,50.04L288.47,167.15z"/>
	<path class="st1" d="M187.39,123.66c0,0-4.48,1.75-12.21,8.66c-1.37-3.46-2.28-7.46-2.17-11.91c0.54-23.12-8.34-39.21-25.02-45.57
		l-4.2,8.98c16.5,5.91,19.66,22.95,19.34,36.36c-0.18,7.69,1.85,14.27,4.53,19.55c-4.26,4.57-9.11,10.37-14.42,17.72
		c-1.79,2.47-3.46,5-5.04,7.56c-6.05-1.71-13.32-2.05-20.43,1.85c-4.37,2.41-7.79,5.16-10.79,7.59c-6.55,5.28-9.77,7.76-17.47,3.98
		l-4.21,8.98c0.15,0.08,0.3,0.16,0.44,0.22c13.06,6.12,20.37,0.22,27.45-5.49c2.82-2.28,5.74-4.63,9.35-6.62
		c3.48-1.92,7.2-2.12,10.65-1.52c-7.7,15.32-11.76,31.63-11.97,47.24c-7.15,1.38-15.33,4.7-21.73,12.17
		c-11.6,13.53-23.26,16.15-39.87,8.88l-4.19,8.94c20.68,9.08,37.11,5.47,51.56-11.4c4.19-4.89,9.62-7.35,14.64-8.54
		c2.43,25.23,15.55,47.5,40.3,59.09L223,181.25L187.39,123.66z"/>
	<path class="st1" d="M308.76,183.95c-3.35,2.93-7.01,4.8-10.54,5.96c0.36-10.36-1.16-14.92-1.16-14.92l-67.04,9.55l-51.07,109.12
		c24.76,11.59,50.28,7.37,71.21-6.93c2.29,4.61,3.87,10.35,2.79,16.74c-3.7,21.9,4.05,36.84,24.27,46.89l4.2-8.95
		c-16.24-8.1-21.68-18.73-18.73-36.31c1.64-9.7-1.05-18.1-4.57-24.48c11.86-10.17,21.78-23.74,28.61-39.48
		c2.65,2.26,4.88,5.25,5.64,9.18c0.78,4.04,0.85,7.78,0.9,11.42c0.16,9.1,0.31,18.48,13.37,24.59c0.15,0.07,0.31,0.13,0.45,0.19
		l4.21-8.98c-7.85-3.5-8-7.55-8.14-15.97c-0.07-3.87-0.13-8.25-1.08-13.15c-1.55-7.96-6.48-13.32-11.66-16.87
		c0.96-2.85,1.82-5.75,2.57-8.71c2.24-8.79,3.59-16.22,4.37-22.42c5.78-1.33,12.12-3.98,17.92-9.05c10.1-8.83,25.24-17.34,40.3-8.44
		l4.21-8.98C344.18,165.22,326.17,168.72,308.76,183.95z"/>
</g>
</svg>
